<?xml version="1.0" encoding="iso-8859-1"?>
<!-- Generator: Adobe Illustrator 19.0.0, SVG Export Plug-In . SVG Version: 6.00 Build 0)  -->
<svg xmlns="http://www.w3.org/2000/svg" xmlns:xlink="http://www.w3.org/1999/xlink" version="1.1" id="Capa_1" x="0px" y="0px" viewBox="0 0 508 508" style="enable-background:new 0 0 508 508;" xml:space="preserve" width="512px" height="512px">
<g>
	<g>
		<path d="M467,114.7H352.3V90.1c0-22.6-18.4-41-41-41H196.6c-22.6,0-41,18.4-41,41v24.6H41c-22.6,0-41,18.4-41,41v262.2    c0,22.6,18.4,41,41,41h426c22.6,0,41-18.4,41-41V155.7C508,133.1,489.6,114.7,467,114.7z M172.1,90.1c0-13.6,11-24.6,24.6-24.6    h114.7c13.6,0,24.6,11,24.6,24.6v24.6H172.1V90.1z M491.4,417.9c0.2,13.5-10.8,24.6-24.4,24.6H41c-13.6,0-24.6-11-24.6-24.6V237.6    h73.7V295h65.5v-57.4h196.6V295h65.5v-57.4h73.7V417.9z M106.5,278.6v-41h32.8v41H106.5z M368.7,278.6v-41h32.8v41H368.7z     M491.6,221.2H16.4v-65.5c0-13.6,11-24.6,24.6-24.6h426c13.6,0,24.6,11,24.6,24.6V221.2z" fill="#A6B1C3"/>
	</g>
</g>
<g>
	<g>
		<rect x="245.8" y="172.1" width="16.4" height="16.4" fill="#A6B1C3"/>
	</g>
</g>
<g>
	<g>
		<rect x="213" y="172.1" width="16.4" height="16.4" fill="#A6B1C3"/>
	</g>
</g>
<g>
	<g>
		<rect x="278.6" y="172.1" width="16.4" height="16.4" fill="#A6B1C3"/>
	</g>
</g>
<g>
</g>
<g>
</g>
<g>
</g>
<g>
</g>
<g>
</g>
<g>
</g>
<g>
</g>
<g>
</g>
<g>
</g>
<g>
</g>
<g>
</g>
<g>
</g>
<g>
</g>
<g>
</g>
<g>
</g>
</svg>
