<?xml version="1.0" encoding="iso-8859-1"?>
<!-- Generator: Adobe Illustrator 19.0.0, SVG Export Plug-In . SVG Version: 6.00 Build 0)  -->
<svg xmlns="http://www.w3.org/2000/svg" xmlns:xlink="http://www.w3.org/1999/xlink" version="1.1" id="Capa_1" x="0px" y="0px" viewBox="0 0 508 508" style="enable-background:new 0 0 508 508;" xml:space="preserve" width="512px" height="512px">
<g>
	<g>
		<path d="M393.3,65.5h-49.2v-8.2c0-13.6-11-24.6-24.6-24.6h-25.4C290.3,14.1,273.8,0,254,0s-36.3,14.1-40.1,32.8h-25.4    c-13.6,0-24.6,11-24.6,24.6v8.2h-49.2c-22.6,0-41,18.4-41,41V467c0,22.6,18.4,41,41,41h278.6c22.6,0,41-18.4,41-41V106.5    C434.3,83.9,415.9,65.5,393.3,65.5z M180.3,57.4c0-4.5,3.7-8.2,8.2-8.2h41V41c0-13.6,11-24.6,24.6-24.6c13.6,0,24.6,11,24.6,24.6    v8.2h41c4.5,0,8.2,3.7,8.2,8.2v41H180.3V57.4z M418,467h-0.1c0,13.6-11,24.6-24.6,24.6H114.7c-13.6,0-24.6-11-24.6-24.6V106.5    c0-13.6,11-24.6,24.6-24.6h49.2v32.8h180.3V81.9h49.2c13.6,0,24.6,11,24.6,24.6V467z" fill="#A6B1C3"/>
	</g>
</g>
<g>
	<g>
		<path d="M122.9,147.5v81.9h81.9v-81.9H122.9z M188.5,213h-49.2v-49.1h49.2V213z" fill="#A6B1C3"/>
	</g>
</g>
<g>
	<g>
		<path d="M122.9,262.2v81.9h81.9v-81.9H122.9z M188.5,327.8h-49.2v-49.2h49.2V327.8z" fill="#A6B1C3"/>
	</g>
</g>
<g>
	<g>
		<path d="M122.9,376.9v81.9h81.9v-81.9H122.9z M188.5,442.5h-49.2v-49.2h49.2V442.5z" fill="#A6B1C3"/>
	</g>
</g>
<g>
	<g>
		<rect x="237.6" y="188.5" width="147.5" height="16.4" fill="#A6B1C3"/>
	</g>
</g>
<g>
	<g>
		<rect x="237.6" y="303.2" width="147.5" height="16.4" fill="#A6B1C3"/>
	</g>
</g>
<g>
	<g>
		<rect x="237.6" y="417.9" width="147.5" height="16.4" fill="#A6B1C3"/>
	</g>
</g>
<g>
	<g>
		<rect x="245.8" y="65.5" width="16.4" height="16.4" fill="#A6B1C3"/>
	</g>
</g>
<g>
	<g>
		<rect x="278.6" y="65.5" width="16.4" height="16.4" fill="#A6B1C3"/>
	</g>
</g>
<g>
	<g>
		<rect x="213" y="65.5" width="16.4" height="16.4" fill="#A6B1C3"/>
	</g>
</g>
<g>
</g>
<g>
</g>
<g>
</g>
<g>
</g>
<g>
</g>
<g>
</g>
<g>
</g>
<g>
</g>
<g>
</g>
<g>
</g>
<g>
</g>
<g>
</g>
<g>
</g>
<g>
</g>
<g>
</g>
</svg>
